<svg width="124" height="124" viewBox="0 0 124 124" fill="none" xmlns="http://www.w3.org/2000/svg">
<path d="M123.3 56.8C123.2 56 122.6 55.4 121.7 55.4H121.3C121.2 55.4 121.1 55.4 120.9 55.4C113.5 55.4 107.4 49.3 107.4 41.9C107.4 40.8 107.5 39.8 107.8 38.6C107.9 38 107.7 37.4 107.2 37C106.9 36.8 106.6 36.7 106.3 36.7C106 36.7 105.7 36.8 105.5 37C103.2 38.5 100.6 39.4 97.9 39.4C90.5 39.4 84.4 33.3 84.4 25.9C84.4 23.2 85.2 20.5 86.8 18.3C87.1 17.8 87.1 17.1 86.8 16.6C86.5 16.2 86.1 16 85.6 16C85.5 16 85.4 16 85.2 16C84.1 16.3 83 16.4 81.9 16.4C74.5 16.4 68.4 10.3 68.4 2.90002C68.4 2.80002 68.4 2.70002 68.4 2.50002V2.20002C68.4 1.40002 67.8 0.700024 67 0.600024C65.1 0.400024 63.4 0.400024 61.8 0.400024C28.1 0.500024 0.5 28.1 0.5 62C0.5 95.9 28.1 123.5 62 123.5C95.9 123.5 123.5 95.9 123.5 62C123.5 60.4 123.4 58.7 123.3 56.8ZM62 83.5C50.1 83.5 40.5 73.9 40.5 62C40.5 50.1 50.1 40.5 62 40.5C73.9 40.5 83.5 50.1 83.5 62C83.5 73.9 73.9 83.5 62 83.5Z" fill="#FBBB8F"/>
</svg>
